<svg width="215" height="40" viewBox="0 0 215 40" fill="none" xmlns="http://www.w3.org/2000/svg">
<path d="M143.293 23.9091C143.293 31.6411 136.578 37.9091 128.293 37.9091C120.009 37.9091 113.293 31.6411 113.293 23.9091C113.293 16.1771 120.009 9.90909 128.293 9.90909C136.578 9.90909 143.293 16.1771 143.293 23.9091Z" fill="url(#paint0_linear_30_4)"/>
<path d="M184.293 23.9091C184.293 31.6411 177.578 37.9091 169.293 37.9091C161.009 37.9091 154.293 31.6411 154.293 23.9091C154.293 16.1771 161.009 9.90909 169.293 9.90909C177.578 9.90909 184.293 16.1771 184.293 23.9091Z" fill="url(#paint1_linear_30_4)"/>
<path d="M2 36.9091V10.7273H3.09091V14.6136H3.22727C3.70455 13.3409 4.55682 12.3182 5.78409 11.5455C7.02273 10.7727 8.51136 10.3864 10.25 10.3864C12.2273 10.3864 13.8011 10.875 14.9716 11.8523C16.1534 12.8295 16.9659 14.1364 17.4091 15.7727H17.5455C17.9773 14.1364 18.8523 12.8295 20.1705 11.8523C21.4886 10.875 23.1364 10.3864 25.1136 10.3864C27.7386 10.3864 29.6761 11.2216 30.9261 12.892C32.1875 14.5511 32.8182 16.6932 32.8182 19.3182V36.9091H31.7273V19.3182C31.7273 17 31.2045 15.1136 30.1591 13.6591C29.1136 12.2045 27.4318 11.4773 25.1136 11.4773C22.7955 11.4773 21.0227 12.2159 19.7955 13.6932C18.5682 15.1591 17.9545 17.0341 17.9545 19.3182V36.9091H16.8636V19.3182C16.8636 17 16.3409 15.1136 15.2955 13.6591C14.25 12.2045 12.5682 11.4773 10.25 11.4773C8.70455 11.4773 7.39773 11.8125 6.32955 12.483C5.27273 13.1534 4.46591 14.0795 3.90909 15.2614C3.36364 16.4432 3.09091 17.7955 3.09091 19.3182V36.9091H2Z" fill="black"/>
<path d="M58.9872 28.3182V10.7273H60.0781V36.9091H58.9872V32.75H58.8509C58.2372 34.1136 57.2259 35.2045 55.8168 36.0227C54.419 36.8409 52.8168 37.25 51.0099 37.25C49.2599 37.25 47.7145 36.8693 46.3736 36.108C45.0327 35.3466 43.9815 34.2955 43.2202 32.9545C42.4588 31.6136 42.0781 30.0682 42.0781 28.3182V10.7273H43.169V28.3182C43.169 30.6364 43.8963 32.5227 45.3509 33.9773C46.8054 35.4318 48.6918 36.1591 51.0099 36.1591C52.5554 36.1591 53.9247 35.8239 55.1179 35.1534C56.3224 34.483 57.2656 33.5568 57.9474 32.375C58.6406 31.1932 58.9872 29.8409 58.9872 28.3182Z" fill="black"/>
<path d="M69.3594 36.9091V10.7273H70.4503V14.8864H70.5866C71.2003 13.5227 72.206 12.4318 73.6037 11.6136C75.0128 10.7955 76.6207 10.3864 78.4276 10.3864C78.5639 10.3864 78.6548 10.3864 78.7003 10.3864C78.7457 10.3864 78.8367 10.3864 78.973 10.3864V11.4773C78.8367 11.4773 78.7457 11.4773 78.7003 11.4773C78.6548 11.4773 78.5639 11.4773 78.4276 11.4773C76.8821 11.4773 75.5071 11.8125 74.3026 12.483C73.1094 13.1534 72.1662 14.0795 71.473 15.2614C70.7912 16.4432 70.4503 17.7955 70.4503 19.3182V36.9091H69.3594Z" fill="black"/>
<path d="M92.6946 37.4545C90.6264 37.4545 88.8367 36.8636 87.3253 35.6818C85.8139 34.4886 84.6491 32.8693 83.831 30.8239C83.0128 28.7784 82.6037 26.4659 82.6037 23.8864C82.6037 21.3182 83.0185 19.0114 83.848 16.9659C84.6776 14.9205 85.848 13.3011 87.3594 12.108C88.8707 10.9148 90.6491 10.3182 92.6946 10.3182C94.081 10.3182 95.3594 10.608 96.5298 11.1875C97.7003 11.7557 98.7173 12.5739 99.581 13.642C100.445 14.6989 101.104 15.9545 101.558 17.4091H101.695V2H102.786V36.9091H101.695V30.3636H101.558C101.081 31.8068 100.416 33.0625 99.5639 34.1307C98.7116 35.1875 97.7003 36.0057 96.5298 36.5852C95.3707 37.1648 94.0923 37.4545 92.6946 37.4545ZM92.6946 36.3636C94.5469 36.3636 96.1435 35.8182 97.4844 34.7273C98.8366 33.625 99.8764 32.1364 100.604 30.2614C101.331 28.375 101.695 26.25 101.695 23.8864C101.695 21.5227 101.325 19.4034 100.587 17.5284C99.8594 15.642 98.8196 14.1534 97.4673 13.0625C96.1264 11.9602 94.5355 11.4091 92.6946 11.4091C90.8537 11.4091 89.2571 11.9602 87.9048 13.0625C86.5639 14.1534 85.5242 15.642 84.7855 17.5284C84.0582 19.4034 83.6946 21.5227 83.6946 23.8864C83.6946 26.25 84.0582 28.375 84.7855 30.2614C85.5128 32.1364 86.5469 33.625 87.8878 34.7273C89.2401 35.8182 90.8423 36.3636 92.6946 36.3636Z" fill="black"/>
<path d="M195.053 26.3409V24.3636H195.462L209.371 10.7273H210.939L199.007 22.4545L198.871 22.5909L195.053 26.3409ZM194.234 36.9091V2H195.325V36.9091H194.234ZM209.916 36.9091L198.462 22.4545L199.28 21.7727L211.348 36.9091H209.916Z" fill="black"/>
<path d="M143.293 23.4091C148.293 21.9091 149.293 21.9091 154.293 23.4091M184.293 23.4091L188.293 23.4091M109.293 23.4091H113.293M143.293 23.9091C143.293 31.6411 136.578 37.9091 128.293 37.9091C120.009 37.9091 113.293 31.6411 113.293 23.9091C113.293 16.1771 120.009 9.90909 128.293 9.90909C136.578 9.90909 143.293 16.1771 143.293 23.9091ZM184.293 23.9091C184.293 31.6411 177.578 37.9091 169.293 37.9091C161.009 37.9091 154.293 31.6411 154.293 23.9091C154.293 16.1771 161.009 9.90909 169.293 9.90909C177.578 9.90909 184.293 16.1771 184.293 23.9091ZM2 36.9091V10.7273H3.09091V14.6136H3.22727C3.70455 13.3409 4.55682 12.3182 5.78409 11.5455C7.02273 10.7727 8.51136 10.3864 10.25 10.3864C12.2273 10.3864 13.8011 10.875 14.9716 11.8523C16.1534 12.8295 16.9659 14.1364 17.4091 15.7727H17.5455C17.9773 14.1364 18.8523 12.8295 20.1705 11.8523C21.4886 10.875 23.1364 10.3864 25.1136 10.3864C27.7386 10.3864 29.6761 11.2216 30.9261 12.892C32.1875 14.5511 32.8182 16.6932 32.8182 19.3182V36.9091H31.7273V19.3182C31.7273 17 31.2045 15.1136 30.1591 13.6591C29.1136 12.2045 27.4318 11.4773 25.1136 11.4773C22.7955 11.4773 21.0227 12.2159 19.7955 13.6932C18.5682 15.1591 17.9545 17.0341 17.9545 19.3182V36.9091H16.8636V19.3182C16.8636 17 16.3409 15.1136 15.2955 13.6591C14.25 12.2045 12.5682 11.4773 10.25 11.4773C8.70455 11.4773 7.39773 11.8125 6.32955 12.483C5.27273 13.1534 4.46591 14.0795 3.90909 15.2614C3.36364 16.4432 3.09091 17.7955 3.09091 19.3182V36.9091H2ZM58.9872 28.3182V10.7273H60.0781V36.9091H58.9872V32.75H58.8509C58.2372 34.1136 57.2259 35.2045 55.8168 36.0227C54.419 36.8409 52.8168 37.25 51.0099 37.25C49.2599 37.25 47.7145 36.8693 46.3736 36.108C45.0327 35.3466 43.9815 34.2955 43.2202 32.9545C42.4588 31.6136 42.0781 30.0682 42.0781 28.3182V10.7273H43.169V28.3182C43.169 30.6364 43.8963 32.5227 45.3509 33.9773C46.8054 35.4318 48.6918 36.1591 51.0099 36.1591C52.5554 36.1591 53.9247 35.8239 55.1179 35.1534C56.3224 34.483 57.2656 33.5568 57.9474 32.375C58.6406 31.1932 58.9872 29.8409 58.9872 28.3182ZM69.3594 36.9091V10.7273H70.4503V14.8864H70.5866C71.2003 13.5227 72.206 12.4318 73.6037 11.6136C75.0128 10.7955 76.6207 10.3864 78.4276 10.3864C78.5639 10.3864 78.6548 10.3864 78.7003 10.3864C78.7457 10.3864 78.8367 10.3864 78.973 10.3864V11.4773C78.8367 11.4773 78.7457 11.4773 78.7003 11.4773C78.6548 11.4773 78.5639 11.4773 78.4276 11.4773C76.8821 11.4773 75.5071 11.8125 74.3026 12.483C73.1094 13.1534 72.1662 14.0795 71.473 15.2614C70.7912 16.4432 70.4503 17.7955 70.4503 19.3182V36.9091H69.3594ZM92.6946 37.4545C90.6264 37.4545 88.8367 36.8636 87.3253 35.6818C85.8139 34.4886 84.6491 32.8693 83.831 30.8239C83.0128 28.7784 82.6037 26.4659 82.6037 23.8864C82.6037 21.3182 83.0185 19.0114 83.848 16.9659C84.6776 14.9205 85.848 13.3011 87.3594 12.108C88.8707 10.9148 90.6491 10.3182 92.6946 10.3182C94.081 10.3182 95.3594 10.608 96.5298 11.1875C97.7003 11.7557 98.7173 12.5739 99.581 13.642C100.445 14.6989 101.104 15.9545 101.558 17.4091H101.695V2H102.786V36.9091H101.695V30.3636H101.558C101.081 31.8068 100.416 33.0625 99.5639 34.1307C98.7116 35.1875 97.7003 36.0057 96.5298 36.5852C95.3707 37.1648 94.0923 37.4545 92.6946 37.4545ZM92.6946 36.3636C94.5469 36.3636 96.1435 35.8182 97.4844 34.7273C98.8366 33.625 99.8764 32.1364 100.604 30.2614C101.331 28.375 101.695 26.25 101.695 23.8864C101.695 21.5227 101.325 19.4034 100.587 17.5284C99.8594 15.642 98.8196 14.1534 97.4673 13.0625C96.1264 11.9602 94.5355 11.4091 92.6946 11.4091C90.8537 11.4091 89.2571 11.9602 87.9048 13.0625C86.5639 14.1534 85.5242 15.642 84.7855 17.5284C84.0582 19.4034 83.6946 21.5227 83.6946 23.8864C83.6946 26.25 84.0582 28.375 84.7855 30.2614C85.5128 32.1364 86.5469 33.625 87.8878 34.7273C89.2401 35.8182 90.8423 36.3636 92.6946 36.3636ZM195.053 26.3409V24.3636H195.462L209.371 10.7273H210.939L199.007 22.4545L198.871 22.5909L195.053 26.3409ZM194.234 36.9091V2H195.325V36.9091H194.234ZM209.916 36.9091L198.462 22.4545L199.28 21.7727L211.348 36.9091H209.916Z" stroke="black" stroke-width="3"/>
<defs>
<linearGradient id="paint0_linear_30_4" x1="106.674" y1="2" x2="106.674" y2="37.9091" gradientUnits="userSpaceOnUse">
<stop offset="0.1"/>
<stop offset="0.6" stop-color="#8C1127"/>
<stop offset="1" stop-color="#F20C36"/>
</linearGradient>
<linearGradient id="paint1_linear_30_4" x1="106.674" y1="2" x2="106.674" y2="37.9091" gradientUnits="userSpaceOnUse">
<stop offset="0.1"/>
<stop offset="0.6" stop-color="#8C1127"/>
<stop offset="1" stop-color="#F20C36"/>
</linearGradient>
</defs>
</svg>
